<?xml version="1.0" encoding="iso-8859-1"?>
<!-- Generator: Adobe Illustrator 19.0.0, SVG Export Plug-In . SVG Version: 6.00 Build 0)  -->
<svg version="1.1" id="Capa_1" xmlns="http://www.w3.org/2000/svg" xmlns:xlink="http://www.w3.org/1999/xlink" x="0px" y="0px"
	 viewBox="0 0 512 512" style="enable-background:new 0 0 512 512;" xml:space="preserve">
<path style="fill:#FF737D;" d="M118.587,60.325h274.828c28.028,0,53.988,14.749,68.337,38.825l40.318,67.648
	c16.975,28.481,11.781,64.946-12.471,87.555L293.987,436.714c-21.396,19.946-54.576,19.946-75.973,0L22.402,254.353
	c-24.253-22.609-29.446-59.074-12.471-87.555L50.249,99.15C64.598,75.074,90.559,60.325,118.587,60.325z"/>
<path style="fill:#F46262;" d="M256.001,60.325H118.587c-28.028,0-53.988,14.749-68.338,38.825L9.931,166.798
	c-16.975,28.481-11.781,64.946,12.471,87.555l195.613,182.362c10.92,10.18,24.912,15.165,38.837,14.954l-22.745-200.11
	c-2.711-23.851-2.077-47.963,1.884-71.639L256.001,60.325z"/>
<path style="fill:#FF737D;" d="M79.507,70.59c-11.88,6.7-22.039,16.449-29.257,28.56L9.93,166.801
	c-9.004,15.11-11.769,32.465-8.76,48.807h162.282L79.507,70.59z"/>
<polygon style="fill:#FFA5B5;" points="163.452,215.607 348.549,215.607 256.001,60.325 "/>
<g>
	<path style="fill:#FF8DA3;" d="M348.549,215.607h162.282c3.009-16.343,0.244-33.699-8.761-48.808l-40.319-67.649
		c-7.218-12.112-17.377-21.859-29.257-28.56L348.549,215.607z"/>
	<path style="fill:#FF8DA3;" d="M163.452,215.607l77.334,233.957c9.788,2.77,20.174,2.814,29.979,0.126l77.783-234.083
		L163.452,215.607L163.452,215.607z"/>
</g>
<path style="fill:#FF737D;" d="M163.452,215.607l77.334,233.957c5.243,1.484,10.659,2.188,16.066,2.104L234.106,251.56
	c-1.358-11.948-1.876-23.961-1.558-35.952L163.452,215.607L163.452,215.607z"/>
<path style="fill:#FF8DA3;" d="M232.549,215.607c0.317-11.947,1.465-23.871,3.442-35.688l20.01-119.595l-92.548,155.282H232.549z"/>
<g>
</g>
<g>
</g>
<g>
</g>
<g>
</g>
<g>
</g>
<g>
</g>
<g>
</g>
<g>
</g>
<g>
</g>
<g>
</g>
<g>
</g>
<g>
</g>
<g>
</g>
<g>
</g>
<g>
</g>
</svg>
