<svg height="512" viewBox="0 0 128 128" width="512" xmlns="http://www.w3.org/2000/svg"><g><path d="m63.95 35.294.723-.905-.623-9.774-18.25-22.865-27.911 4.362-12.161 12.856-3.978 18.258 24.055 76.2 17.036 2.144 16.344-5.526z" fill="#595555"/><path d="m126.25 47.906-3.978-18.258-12.161-12.856-27.911-4.362-18.25 22.864-5.228 82.017 26.437 8.939 17.035-2.144z" fill="#756f6f"/><g fill="#dccfca"><path d="m44.744 102.523-3.111 1.053-6.889-.867-1.275-4.042a1.75 1.75 0 1 0 -3.338 1.053l1.613 5.111a1.751 1.751 0 0 0 1.45 1.21l8.4 1.058a1.992 1.992 0 0 0 .218.013 1.781 1.781 0 0 0 .561-.091l3.492-1.181a1.751 1.751 0 1 0 -1.121-3.317z"/><path d="m34.557 15.4 6.316-.987 4.211 5.278a1.75 1.75 0 0 0 2.736-2.184l-4.845-6.071a1.737 1.737 0 0 0 -1.639-.637l-7.32 1.144a1.75 1.75 0 0 0 .541 3.457z"/><path d="m54.125 58.784a4.94 4.94 0 0 1 -5.148-2.216l4.515-.914a1.749 1.749 0 1 0 -.693-3.429l-4.516.913a4.937 4.937 0 0 1 3.882-4.038 1.75 1.75 0 0 0 -.693-3.43 8.454 8.454 0 0 0 -6.767 8.2l-4.963 1-1-4.964a8.435 8.435 0 0 0 4.922-9.419 1.75 1.75 0 0 0 -3.43.694 4.9 4.9 0 0 1 -2.214 5.152l-.92-4.523a1.75 1.75 0 1 0 -3.43.693l.913 4.513a4.94 4.94 0 0 1 -4.042-3.88 1.75 1.75 0 0 0 -3.43.693 8.439 8.439 0 0 0 8.2 6.767l1 4.963-4.963 1a8.446 8.446 0 0 0 -9.419-4.922 1.749 1.749 0 1 0 .693 3.429 4.941 4.941 0 0 1 5.148 2.217l-4.515.913a1.75 1.75 0 0 0 .345 3.465 1.726 1.726 0 0 0 .348-.035l4.516-.913a4.939 4.939 0 0 1 -3.882 4.042 1.75 1.75 0 0 0 .345 3.465 1.726 1.726 0 0 0 .348-.035 8.455 8.455 0 0 0 6.767-8.2l4.963-1 1 4.964a8.452 8.452 0 0 0 -4.922 9.419 1.749 1.749 0 0 0 1.713 1.4 1.657 1.657 0 0 0 .348-.035 1.748 1.748 0 0 0 1.369-2.061 4.938 4.938 0 0 1 2.215-5.149l.913 4.515a1.751 1.751 0 0 0 1.713 1.4 1.66 1.66 0 0 0 .349-.035 1.748 1.748 0 0 0 1.368-2.061l-.913-4.515a4.942 4.942 0 0 1 4.042 3.882 1.75 1.75 0 0 0 3.43-.694 8.45 8.45 0 0 0 -8.2-6.768l-1-4.962 4.97-.995a8.421 8.421 0 0 0 9.414 4.924 1.75 1.75 0 0 0 -.693-3.43z"/><path d="m70.472 90.189a1.743 1.743 0 0 0 -1.858 1.634l-.444 6.977a1.748 1.748 0 0 0 1.635 1.857h.113a1.75 1.75 0 0 0 1.744-1.638l.444-6.972a1.748 1.748 0 0 0 -1.634-1.858z"/><path d="m96.727 108.2a1.747 1.747 0 0 0 -2.2 1.143l-1.275 4.042-6.889.867-3.107-1.052a1.751 1.751 0 0 0 -1.121 3.317l3.492 1.18a1.753 1.753 0 0 0 .56.092 1.776 1.776 0 0 0 .219-.014l8.4-1.057a1.751 1.751 0 0 0 1.45-1.21l1.613-5.112a1.75 1.75 0 0 0 -1.142-2.196z"/><path d="m80.456 30.646a1.753 1.753 0 0 0 2.46-.277l4.211-5.277 6.316.987a1.75 1.75 0 1 0 .541-3.457l-7.32-1.144a1.737 1.737 0 0 0 -1.639.636l-4.845 6.071a1.752 1.752 0 0 0 .276 2.461z"/><path d="m106.07 62.32a8.437 8.437 0 0 0 -9.419 4.923l-4.963-1 1-4.963a8.439 8.439 0 0 0 8.2-6.767 1.75 1.75 0 1 0 -3.43-.694 4.907 4.907 0 0 1 -4.044 3.881l.914-4.52a1.75 1.75 0 0 0 -3.43-.694l-.913 4.514a4.939 4.939 0 0 1 -2.216-5.148 1.749 1.749 0 0 0 -3.429-.693 8.453 8.453 0 0 0 4.922 9.419l-1 4.963-4.963-1a8.453 8.453 0 0 0 -6.767-8.195 1.749 1.749 0 1 0 -.693 3.429 4.9 4.9 0 0 1 3.886 4.044l-4.525-.919a1.75 1.75 0 0 0 -.693 3.43l4.515.913a4.941 4.941 0 0 1 -5.148 2.217 1.75 1.75 0 1 0 -.693 3.43 8.421 8.421 0 0 0 9.419-4.92l4.968 1-1 4.963a8.454 8.454 0 0 0 -8.2 6.767 1.75 1.75 0 1 0 3.43.693 4.938 4.938 0 0 1 4.042-3.881l-.913 4.514a1.749 1.749 0 0 0 1.368 2.062 1.729 1.729 0 0 0 .349.035 1.749 1.749 0 0 0 1.712-1.4l.914-4.515a4.939 4.939 0 0 1 2.215 5.148 1.749 1.749 0 0 0 1.369 2.062 1.726 1.726 0 0 0 .348.035 1.749 1.749 0 0 0 1.713-1.4 8.454 8.454 0 0 0 -4.922-9.42l1-4.963 4.963 1a8.437 8.437 0 0 0 6.767 8.195 1.657 1.657 0 0 0 .348.035 1.749 1.749 0 0 0 .345-3.464 4.9 4.9 0 0 1 -3.885-4.036l4.52.915a1.726 1.726 0 0 0 .348.035 1.75 1.75 0 0 0 .345-3.465l-4.52-.914a4.907 4.907 0 0 1 5.153-2.216 1.75 1.75 0 0 0 .693-3.43z"/></g></g></svg>